<?xml version="1.0" encoding="utf-8"?>
<!-- Generator: Adobe Illustrator 17.1.0, SVG Export Plug-In . SVG Version: 6.00 Build 0)  -->
<!DOCTYPE svg PUBLIC "-//W3C//DTD SVG 1.1//EN" "http://www.w3.org/Graphics/SVG/1.1/DTD/svg11.dtd">
<svg version="1.1" xmlns="http://www.w3.org/2000/svg" xmlns:xlink="http://www.w3.org/1999/xlink" x="0px" y="0px"
	 viewBox="0 0 611.3 258.2" enable-background="new 0 0 611.3 258.2" xml:space="preserve">
<g id="Background" display="none">
	<g display="inline">
		<g>
			<g>
				<rect x="-94.4" y="-270.9" fill="#F1F1F1" width="1.7" height="800"/>
			</g>
			<g>
				<rect x="-86.8" y="-270.9" fill="#F1F1F1" width="1.7" height="800"/>
			</g>
			<g>
				<rect x="-79.3" y="-270.9" fill="#F1F1F1" width="1.7" height="800"/>
			</g>
			<g>
				<rect x="-71.8" y="-270.9" fill="#F1F1F1" width="1.7" height="800"/>
			</g>
			<g>
				<rect x="-64.2" y="-270.9" fill="#F1F1F1" width="1.7" height="800"/>
			</g>
			<g>
				<rect x="-56.7" y="-270.9" fill="#F1F1F1" width="1.7" height="800"/>
			</g>
			<g>
				<rect x="-49.2" y="-270.9" fill="#F1F1F1" width="1.7" height="800"/>
			</g>
			<g>
				<rect x="-41.6" y="-270.9" fill="#F1F1F1" width="1.7" height="800"/>
			</g>
			<g>
				<rect x="-34.1" y="-270.9" fill="#F1F1F1" width="1.7" height="800"/>
			</g>
			<g>
				<rect x="-26.6" y="-270.9" fill="#F1F1F1" width="1.7" height="800"/>
			</g>
			<g>
				<rect x="-19.1" y="-270.9" fill="#F1F1F1" width="1.7" height="800"/>
			</g>
			<g>
				<rect x="-11.5" y="-270.9" fill="#F1F1F1" width="1.7" height="800"/>
			</g>
			<g>
				<rect x="-4" y="-270.9" fill="#F1F1F1" width="1.7" height="800"/>
			</g>
			<g>
				<rect x="3.5" y="-270.9" fill="#F1F1F1" width="1.7" height="800"/>
			</g>
			<g>
				<rect x="11.1" y="-270.9" fill="#F1F1F1" width="1.7" height="800"/>
			</g>
			<g>
				<rect x="18.6" y="-270.9" fill="#F1F1F1" width="1.7" height="800"/>
			</g>
			<g>
				<rect x="26.1" y="-270.9" fill="#F1F1F1" width="1.7" height="800"/>
			</g>
			<g>
				<rect x="33.7" y="-270.9" fill="#F1F1F1" width="1.7" height="800"/>
			</g>
			<g>
				<rect x="41.2" y="-270.9" fill="#F1F1F1" width="1.7" height="800"/>
			</g>
			<g>
				<rect x="48.7" y="-270.9" fill="#F1F1F1" width="1.7" height="800"/>
			</g>
			<g>
				<rect x="56.3" y="-270.9" fill="#F1F1F1" width="1.7" height="800"/>
			</g>
			<g>
				<rect x="63.8" y="-270.9" fill="#F1F1F1" width="1.7" height="800"/>
			</g>
			<g>
				<rect x="71.3" y="-270.9" fill="#F1F1F1" width="1.7" height="800"/>
			</g>
			<g>
				<rect x="78.9" y="-270.9" fill="#F1F1F1" width="1.7" height="800"/>
			</g>
			<g>
				<rect x="86.4" y="-270.9" fill="#F1F1F1" width="1.7" height="800"/>
			</g>
			<g>
				<rect x="93.9" y="-270.9" fill="#F1F1F1" width="1.7" height="800"/>
			</g>
			<g>
				<rect x="101.4" y="-270.9" fill="#F1F1F1" width="1.7" height="800"/>
			</g>
			<g>
				<rect x="109" y="-270.9" fill="#F1F1F1" width="1.7" height="800"/>
			</g>
			<g>
				<rect x="116.5" y="-270.9" fill="#F1F1F1" width="1.7" height="800"/>
			</g>
			<g>
				<rect x="124" y="-270.9" fill="#F1F1F1" width="1.7" height="800"/>
			</g>
			<g>
				<rect x="131.6" y="-270.9" fill="#F1F1F1" width="1.7" height="800"/>
			</g>
			<g>
				<rect x="139.1" y="-270.9" fill="#F1F1F1" width="1.7" height="800"/>
			</g>
			<g>
				<rect x="146.6" y="-270.9" fill="#F1F1F1" width="1.7" height="800"/>
			</g>
			<g>
				<rect x="154.2" y="-270.9" fill="#F1F1F1" width="1.7" height="800"/>
			</g>
			<g>
				<rect x="161.7" y="-270.9" fill="#F1F1F1" width="1.7" height="800"/>
			</g>
			<g>
				<rect x="169.2" y="-270.9" fill="#F1F1F1" width="1.7" height="800"/>
			</g>
			<g>
				<rect x="176.8" y="-270.9" fill="#F1F1F1" width="1.7" height="800"/>
			</g>
			<g>
				<rect x="184.3" y="-270.9" fill="#F1F1F1" width="1.7" height="800"/>
			</g>
			<g>
				<rect x="191.8" y="-270.9" fill="#F1F1F1" width="1.7" height="800"/>
			</g>
			<g>
				<rect x="199.4" y="-270.9" fill="#F1F1F1" width="1.7" height="800"/>
			</g>
			<g>
				<rect x="206.9" y="-270.9" fill="#F1F1F1" width="1.7" height="800"/>
			</g>
			<g>
				<rect x="214.4" y="-270.9" fill="#F1F1F1" width="1.7" height="800"/>
			</g>
			<g>
				<rect x="222" y="-270.9" fill="#F1F1F1" width="1.7" height="800"/>
			</g>
			<g>
				<rect x="229.5" y="-270.9" fill="#F1F1F1" width="1.7" height="800"/>
			</g>
			<g>
				<rect x="237" y="-270.9" fill="#F1F1F1" width="1.7" height="800"/>
			</g>
			<g>
				<rect x="244.5" y="-270.9" fill="#F1F1F1" width="1.7" height="800"/>
			</g>
			<g>
				<rect x="252.1" y="-270.9" fill="#F1F1F1" width="1.7" height="800"/>
			</g>
			<g>
				<rect x="259.6" y="-270.9" fill="#F1F1F1" width="1.7" height="800"/>
			</g>
			<g>
				<rect x="267.1" y="-270.9" fill="#F1F1F1" width="1.7" height="800"/>
			</g>
			<g>
				<rect x="274.7" y="-270.9" fill="#F1F1F1" width="1.7" height="800"/>
			</g>
			<g>
				<rect x="282.2" y="-270.9" fill="#F1F1F1" width="1.7" height="800"/>
			</g>
			<g>
				<rect x="289.7" y="-270.9" fill="#F1F1F1" width="1.7" height="800"/>
			</g>
			<g>
				<rect x="297.3" y="-270.9" fill="#F1F1F1" width="1.7" height="800"/>
			</g>
			<g>
				<rect x="304.8" y="-270.9" fill="#F1F1F1" width="1.7" height="800"/>
			</g>
			<g>
				<rect x="312.3" y="-270.9" fill="#F1F1F1" width="1.7" height="800"/>
			</g>
			<g>
				<rect x="319.9" y="-270.9" fill="#F1F1F1" width="1.7" height="800"/>
			</g>
			<g>
				<rect x="327.4" y="-270.9" fill="#F1F1F1" width="1.7" height="800"/>
			</g>
			<g>
				<rect x="334.9" y="-270.9" fill="#F1F1F1" width="1.7" height="800"/>
			</g>
			<g>
				<rect x="342.5" y="-270.9" fill="#F1F1F1" width="1.7" height="800"/>
			</g>
			<g>
				<rect x="350" y="-270.9" fill="#F1F1F1" width="1.7" height="800"/>
			</g>
			<g>
				<rect x="357.5" y="-270.9" fill="#F1F1F1" width="1.7" height="800"/>
			</g>
			<g>
				<rect x="365" y="-270.9" fill="#F1F1F1" width="1.7" height="800"/>
			</g>
			<g>
				<rect x="372.6" y="-270.9" fill="#F1F1F1" width="1.7" height="800"/>
			</g>
			<g>
				<rect x="380.1" y="-270.9" fill="#F1F1F1" width="1.7" height="800"/>
			</g>
			<g>
				<rect x="387.6" y="-270.9" fill="#F1F1F1" width="1.7" height="800"/>
			</g>
			<g>
				<rect x="395.2" y="-270.9" fill="#F1F1F1" width="1.7" height="800"/>
			</g>
			<g>
				<rect x="402.7" y="-270.9" fill="#F1F1F1" width="1.7" height="800"/>
			</g>
			<g>
				<rect x="410.2" y="-270.9" fill="#F1F1F1" width="1.7" height="800"/>
			</g>
			<g>
				<rect x="417.8" y="-270.9" fill="#F1F1F1" width="1.7" height="800"/>
			</g>
			<g>
				<rect x="425.3" y="-270.9" fill="#F1F1F1" width="1.7" height="800"/>
			</g>
			<g>
				<rect x="432.8" y="-270.9" fill="#F1F1F1" width="1.7" height="800"/>
			</g>
			<g>
				<rect x="440.4" y="-270.9" fill="#F1F1F1" width="1.7" height="800"/>
			</g>
			<g>
				<rect x="447.9" y="-270.9" fill="#F1F1F1" width="1.7" height="800"/>
			</g>
			<g>
				<rect x="455.4" y="-270.9" fill="#F1F1F1" width="1.7" height="800"/>
			</g>
			<g>
				<rect x="463" y="-270.9" fill="#F1F1F1" width="1.7" height="800"/>
			</g>
			<g>
				<rect x="470.5" y="-270.9" fill="#F1F1F1" width="1.7" height="800"/>
			</g>
			<g>
				<rect x="478" y="-270.9" fill="#F1F1F1" width="1.7" height="800"/>
			</g>
			<g>
				<rect x="485.6" y="-270.9" fill="#F1F1F1" width="1.7" height="800"/>
			</g>
			<g>
				<rect x="493.1" y="-270.9" fill="#F1F1F1" width="1.7" height="800"/>
			</g>
			<g>
				<rect x="500.6" y="-270.9" fill="#F1F1F1" width="1.7" height="800"/>
			</g>
			<g>
				<rect x="508.1" y="-270.9" fill="#F1F1F1" width="1.7" height="800"/>
			</g>
			<g>
				<rect x="515.7" y="-270.9" fill="#F1F1F1" width="1.7" height="800"/>
			</g>
			<g>
				<rect x="523.2" y="-270.9" fill="#F1F1F1" width="1.7" height="800"/>
			</g>
			<g>
				<rect x="530.7" y="-270.9" fill="#F1F1F1" width="1.7" height="800"/>
			</g>
			<g>
				<rect x="538.3" y="-270.9" fill="#F1F1F1" width="1.7" height="800"/>
			</g>
			<g>
				<rect x="545.8" y="-270.9" fill="#F1F1F1" width="1.7" height="800"/>
			</g>
			<g>
				<rect x="553.3" y="-270.9" fill="#F1F1F1" width="1.7" height="800"/>
			</g>
			<g>
				<rect x="560.9" y="-270.9" fill="#F1F1F1" width="1.7" height="800"/>
			</g>
			<g>
				<rect x="568.4" y="-270.9" fill="#F1F1F1" width="1.7" height="800"/>
			</g>
			<g>
				<rect x="575.9" y="-270.9" fill="#F1F1F1" width="1.7" height="800"/>
			</g>
			<g>
				<rect x="583.5" y="-270.9" fill="#F1F1F1" width="1.7" height="800"/>
			</g>
			<g>
				<rect x="591" y="-270.9" fill="#F1F1F1" width="1.7" height="800"/>
			</g>
			<g>
				<rect x="598.5" y="-270.9" fill="#F1F1F1" width="1.7" height="800"/>
			</g>
			<g>
				<rect x="606.1" y="-270.9" fill="#F1F1F1" width="1.7" height="800"/>
			</g>
			<g>
				<rect x="613.6" y="-270.9" fill="#F1F1F1" width="1.7" height="800"/>
			</g>
			<g>
				<rect x="621.1" y="-270.9" fill="#F1F1F1" width="1.7" height="800"/>
			</g>
			<g>
				<rect x="628.6" y="-270.9" fill="#F1F1F1" width="1.7" height="800"/>
			</g>
			<g>
				<rect x="636.2" y="-270.9" fill="#F1F1F1" width="1.7" height="800"/>
			</g>
			<g>
				<rect x="643.7" y="-270.9" fill="#F1F1F1" width="1.7" height="800"/>
			</g>
			<g>
				<rect x="651.2" y="-270.9" fill="#F1F1F1" width="1.7" height="800"/>
			</g>
			<g>
				<rect x="658.8" y="-270.9" fill="#F1F1F1" width="1.7" height="800"/>
			</g>
			<g>
				<rect x="666.3" y="-270.9" fill="#F1F1F1" width="1.7" height="800"/>
			</g>
			<g>
				<rect x="673.8" y="-270.9" fill="#F1F1F1" width="1.7" height="800"/>
			</g>
			<g>
				<rect x="681.4" y="-270.9" fill="#F1F1F1" width="1.7" height="800"/>
			</g>
			<g>
				<rect x="688.9" y="-270.9" fill="#F1F1F1" width="1.7" height="800"/>
			</g>
			<g>
				<rect x="696.4" y="-270.9" fill="#F1F1F1" width="1.7" height="800"/>
			</g>
			<g>
				<rect x="704" y="-270.9" fill="#F1F1F1" width="1.7" height="800"/>
			</g>
		</g>
		<g>
			<g>
				<rect x="-94.4" y="-270.9" fill="#F1F1F1" width="800" height="1.7"/>
			</g>
			<g>
				<rect x="-94.4" y="-263.4" fill="#F1F1F1" width="800" height="1.7"/>
			</g>
			<g>
				<rect x="-94.4" y="-255.8" fill="#F1F1F1" width="800" height="1.7"/>
			</g>
			<g>
				<rect x="-94.4" y="-248.3" fill="#F1F1F1" width="800" height="1.7"/>
			</g>
			<g>
				<rect x="-94.4" y="-240.8" fill="#F1F1F1" width="800" height="1.7"/>
			</g>
			<g>
				<rect x="-94.4" y="-233.2" fill="#F1F1F1" width="800" height="1.7"/>
			</g>
			<g>
				<rect x="-94.4" y="-225.7" fill="#F1F1F1" width="800" height="1.7"/>
			</g>
			<g>
				<rect x="-94.4" y="-218.2" fill="#F1F1F1" width="800" height="1.7"/>
			</g>
			<g>
				<rect x="-94.4" y="-210.6" fill="#F1F1F1" width="800" height="1.7"/>
			</g>
			<g>
				<rect x="-94.4" y="-203.1" fill="#F1F1F1" width="800" height="1.7"/>
			</g>
			<g>
				<rect x="-94.4" y="-195.6" fill="#F1F1F1" width="800" height="1.7"/>
			</g>
			<g>
				<rect x="-94.4" y="-188" fill="#F1F1F1" width="800" height="1.7"/>
			</g>
			<g>
				<rect x="-94.4" y="-180.5" fill="#F1F1F1" width="800" height="1.7"/>
			</g>
			<g>
				<rect x="-94.4" y="-173" fill="#F1F1F1" width="800" height="1.7"/>
			</g>
			<g>
				<rect x="-94.4" y="-165.4" fill="#F1F1F1" width="800" height="1.7"/>
			</g>
			<g>
				<rect x="-94.4" y="-157.9" fill="#F1F1F1" width="800" height="1.7"/>
			</g>
			<g>
				<rect x="-94.4" y="-150.4" fill="#F1F1F1" width="800" height="1.7"/>
			</g>
			<g>
				<rect x="-94.4" y="-142.9" fill="#F1F1F1" width="800" height="1.7"/>
			</g>
			<g>
				<rect x="-94.4" y="-135.3" fill="#F1F1F1" width="800" height="1.7"/>
			</g>
			<g>
				<rect x="-94.4" y="-127.8" fill="#F1F1F1" width="800" height="1.7"/>
			</g>
			<g>
				<rect x="-94.4" y="-120.3" fill="#F1F1F1" width="800" height="1.7"/>
			</g>
			<g>
				<rect x="-94.4" y="-112.7" fill="#F1F1F1" width="800" height="1.7"/>
			</g>
			<g>
				<rect x="-94.4" y="-105.2" fill="#F1F1F1" width="800" height="1.7"/>
			</g>
			<g>
				<rect x="-94.4" y="-97.7" fill="#F1F1F1" width="800" height="1.7"/>
			</g>
			<g>
				<rect x="-94.4" y="-90.1" fill="#F1F1F1" width="800" height="1.7"/>
			</g>
			<g>
				<rect x="-94.4" y="-82.6" fill="#F1F1F1" width="800" height="1.7"/>
			</g>
			<g>
				<rect x="-94.4" y="-75.1" fill="#F1F1F1" width="800" height="1.7"/>
			</g>
			<g>
				<rect x="-94.4" y="-67.5" fill="#F1F1F1" width="800" height="1.7"/>
			</g>
			<g>
				<rect x="-94.4" y="-60" fill="#F1F1F1" width="800" height="1.7"/>
			</g>
			<g>
				<rect x="-94.4" y="-52.5" fill="#F1F1F1" width="800" height="1.7"/>
			</g>
			<g>
				<rect x="-94.4" y="-44.9" fill="#F1F1F1" width="800" height="1.7"/>
			</g>
			<g>
				<rect x="-94.4" y="-37.4" fill="#F1F1F1" width="800" height="1.7"/>
			</g>
			<g>
				<rect x="-94.4" y="-29.9" fill="#F1F1F1" width="800" height="1.7"/>
			</g>
			<g>
				<rect x="-94.4" y="-22.3" fill="#F1F1F1" width="800" height="1.7"/>
			</g>
			<g>
				<rect x="-94.4" y="-14.8" fill="#F1F1F1" width="800" height="1.7"/>
			</g>
			<g>
				<rect x="-94.4" y="-7.3" fill="#F1F1F1" width="800" height="1.7"/>
			</g>
			<g>
				<rect x="-94.4" y="0.2" fill="#F1F1F1" width="800" height="1.7"/>
			</g>
			<g>
				<rect x="-94.4" y="7.8" fill="#F1F1F1" width="800" height="1.7"/>
			</g>
			<g>
				<rect x="-94.4" y="15.3" fill="#F1F1F1" width="800" height="1.7"/>
			</g>
			<g>
				<rect x="-94.4" y="22.8" fill="#F1F1F1" width="800" height="1.7"/>
			</g>
			<g>
				<rect x="-94.4" y="30.4" fill="#F1F1F1" width="800" height="1.7"/>
			</g>
			<g>
				<rect x="-94.4" y="37.9" fill="#F1F1F1" width="800" height="1.7"/>
			</g>
			<g>
				<rect x="-94.4" y="45.4" fill="#F1F1F1" width="800" height="1.7"/>
			</g>
			<g>
				<rect x="-94.4" y="53" fill="#F1F1F1" width="800" height="1.7"/>
			</g>
			<g>
				<rect x="-94.4" y="60.5" fill="#F1F1F1" width="800" height="1.7"/>
			</g>
			<g>
				<rect x="-94.4" y="68" fill="#F1F1F1" width="800" height="1.7"/>
			</g>
			<g>
				<rect x="-94.4" y="75.6" fill="#F1F1F1" width="800" height="1.7"/>
			</g>
			<g>
				<rect x="-94.4" y="83.1" fill="#F1F1F1" width="800" height="1.7"/>
			</g>
			<g>
				<rect x="-94.4" y="90.6" fill="#F1F1F1" width="800" height="1.7"/>
			</g>
			<g>
				<rect x="-94.4" y="98.2" fill="#F1F1F1" width="800" height="1.7"/>
			</g>
			<g>
				<rect x="-94.4" y="105.7" fill="#F1F1F1" width="800" height="1.7"/>
			</g>
			<g>
				<rect x="-94.4" y="113.2" fill="#F1F1F1" width="800" height="1.7"/>
			</g>
			<g>
				<rect x="-94.4" y="120.7" fill="#F1F1F1" width="800" height="1.7"/>
			</g>
			<g>
				<rect x="-94.4" y="128.3" fill="#F1F1F1" width="800" height="1.7"/>
			</g>
			<g>
				<rect x="-94.4" y="135.8" fill="#F1F1F1" width="800" height="1.7"/>
			</g>
			<g>
				<rect x="-94.4" y="143.3" fill="#F1F1F1" width="800" height="1.7"/>
			</g>
			<g>
				<rect x="-94.4" y="150.9" fill="#F1F1F1" width="800" height="1.7"/>
			</g>
			<g>
				<rect x="-94.4" y="158.4" fill="#F1F1F1" width="800" height="1.7"/>
			</g>
			<g>
				<rect x="-94.4" y="165.9" fill="#F1F1F1" width="800" height="1.7"/>
			</g>
			<g>
				<rect x="-94.4" y="173.5" fill="#F1F1F1" width="800" height="1.7"/>
			</g>
			<g>
				<rect x="-94.4" y="181" fill="#F1F1F1" width="800" height="1.7"/>
			</g>
			<g>
				<rect x="-94.4" y="188.5" fill="#F1F1F1" width="800" height="1.7"/>
			</g>
			<g>
				<rect x="-94.4" y="196.1" fill="#F1F1F1" width="800" height="1.7"/>
			</g>
			<g>
				<rect x="-94.4" y="203.6" fill="#F1F1F1" width="800" height="1.7"/>
			</g>
			<g>
				<rect x="-94.4" y="211.1" fill="#F1F1F1" width="800" height="1.7"/>
			</g>
			<g>
				<rect x="-94.4" y="218.7" fill="#F1F1F1" width="800" height="1.7"/>
			</g>
			<g>
				<rect x="-94.4" y="226.2" fill="#F1F1F1" width="800" height="1.7"/>
			</g>
			<g>
				<rect x="-94.4" y="233.7" fill="#F1F1F1" width="800" height="1.7"/>
			</g>
			<g>
				<rect x="-94.4" y="241.3" fill="#F1F1F1" width="800" height="1.7"/>
			</g>
			<g>
				<rect x="-94.4" y="248.8" fill="#F1F1F1" width="800" height="1.7"/>
			</g>
			<g>
				<rect x="-94.4" y="256.3" fill="#F1F1F1" width="800" height="1.7"/>
			</g>
			<g>
				<rect x="-94.4" y="263.8" fill="#F1F1F1" width="800" height="1.7"/>
			</g>
			<g>
				<rect x="-94.4" y="271.4" fill="#F1F1F1" width="800" height="1.7"/>
			</g>
			<g>
				<rect x="-94.4" y="278.9" fill="#F1F1F1" width="800" height="1.7"/>
			</g>
			<g>
				<rect x="-94.4" y="286.4" fill="#F1F1F1" width="800" height="1.7"/>
			</g>
			<g>
				<rect x="-94.4" y="294" fill="#F1F1F1" width="800" height="1.7"/>
			</g>
			<g>
				<rect x="-94.4" y="301.5" fill="#F1F1F1" width="800" height="1.7"/>
			</g>
			<g>
				<rect x="-94.4" y="309" fill="#F1F1F1" width="800" height="1.7"/>
			</g>
			<g>
				<rect x="-94.4" y="316.6" fill="#F1F1F1" width="800" height="1.7"/>
			</g>
			<g>
				<rect x="-94.4" y="324.1" fill="#F1F1F1" width="800" height="1.7"/>
			</g>
			<g>
				<rect x="-94.4" y="331.6" fill="#F1F1F1" width="800" height="1.7"/>
			</g>
			<g>
				<rect x="-94.4" y="339.2" fill="#F1F1F1" width="800" height="1.7"/>
			</g>
			<g>
				<rect x="-94.4" y="346.7" fill="#F1F1F1" width="800" height="1.7"/>
			</g>
			<g>
				<rect x="-94.4" y="354.2" fill="#F1F1F1" width="800" height="1.7"/>
			</g>
			<g>
				<rect x="-94.4" y="361.8" fill="#F1F1F1" width="800" height="1.7"/>
			</g>
			<g>
				<rect x="-94.4" y="369.3" fill="#F1F1F1" width="800" height="1.7"/>
			</g>
			<g>
				<rect x="-94.4" y="376.8" fill="#F1F1F1" width="800" height="1.7"/>
			</g>
			<g>
				<rect x="-94.4" y="384.4" fill="#F1F1F1" width="800" height="1.7"/>
			</g>
			<g>
				<rect x="-94.4" y="391.9" fill="#F1F1F1" width="800" height="1.7"/>
			</g>
			<g>
				<rect x="-94.4" y="399.4" fill="#F1F1F1" width="800" height="1.7"/>
			</g>
			<g>
				<rect x="-94.4" y="406.9" fill="#F1F1F1" width="800" height="1.7"/>
			</g>
			<g>
				<rect x="-94.4" y="414.5" fill="#F1F1F1" width="800" height="1.7"/>
			</g>
			<g>
				<rect x="-94.4" y="422" fill="#F1F1F1" width="800" height="1.7"/>
			</g>
			<g>
				<rect x="-94.4" y="429.5" fill="#F1F1F1" width="800" height="1.7"/>
			</g>
			<g>
				<rect x="-94.4" y="437.1" fill="#F1F1F1" width="800" height="1.7"/>
			</g>
			<g>
				<rect x="-94.4" y="444.6" fill="#F1F1F1" width="800" height="1.7"/>
			</g>
			<g>
				<rect x="-94.4" y="452.1" fill="#F1F1F1" width="800" height="1.7"/>
			</g>
			<g>
				<rect x="-94.4" y="459.7" fill="#F1F1F1" width="800" height="1.7"/>
			</g>
			<g>
				<rect x="-94.4" y="467.2" fill="#F1F1F1" width="800" height="1.7"/>
			</g>
			<g>
				<rect x="-94.4" y="474.7" fill="#F1F1F1" width="800" height="1.7"/>
			</g>
			<g>
				<rect x="-94.4" y="482.3" fill="#F1F1F1" width="800" height="1.7"/>
			</g>
			<g>
				<rect x="-94.4" y="489.8" fill="#F1F1F1" width="800" height="1.7"/>
			</g>
			<g>
				<rect x="-94.4" y="497.3" fill="#F1F1F1" width="800" height="1.7"/>
			</g>
			<g>
				<rect x="-94.4" y="504.9" fill="#F1F1F1" width="800" height="1.7"/>
			</g>
			<g>
				<rect x="-94.4" y="512.4" fill="#F1F1F1" width="800" height="1.7"/>
			</g>
			<g>
				<rect x="-94.4" y="519.9" fill="#F1F1F1" width="800" height="1.7"/>
			</g>
			<g>
				<rect x="-94.4" y="527.4" fill="#F1F1F1" width="800" height="1.7"/>
			</g>
		</g>
	</g>
	<radialGradient id="SVGID_1_" cx="305.6309" cy="129.1143" r="563.46" gradientUnits="userSpaceOnUse">
		<stop  offset="0" style="stop-color:#FFFFFF;stop-opacity:0"/>
		<stop  offset="0.129" style="stop-color:#FBFBFB;stop-opacity:3.869819e-002"/>
		<stop  offset="0.2617" style="stop-color:#EFEFEF;stop-opacity:7.850212e-002"/>
		<stop  offset="0.3961" style="stop-color:#DADADA;stop-opacity:0.1188"/>
		<stop  offset="0.5317" style="stop-color:#BDBEBD;stop-opacity:0.1595"/>
		<stop  offset="0.6683" style="stop-color:#989998;stop-opacity:0.2005"/>
		<stop  offset="0.8057" style="stop-color:#6B6C6A;stop-opacity:0.2417"/>
		<stop  offset="0.9413" style="stop-color:#363735;stop-opacity:0.2824"/>
		<stop  offset="1" style="stop-color:#1D1E1C;stop-opacity:0.3"/>
	</radialGradient>
	<rect x="-94.4" y="-270.9" display="inline" fill="url(#SVGID_1_)" width="800" height="800"/>
	<g display="inline">
		<g>
			<path fill="#3D3D3C" d="M303.6,500.8h0.7v-0.9c0-1,0.1-1.8,0.4-2.3c0.2-0.6,0.7-1,1.3-1.3c0.6-0.3,1.4-0.4,2.4-0.4
				c1.8,0,2.7,0.4,2.7,1.3c0,0.3-0.1,0.5-0.3,0.7c-0.2,0.2-0.4,0.3-0.7,0.3c-0.1,0-0.3,0-0.6-0.1c-0.3,0-0.5-0.1-0.8-0.1
				c-0.6,0-0.9,0.2-1.1,0.5c-0.2,0.3-0.2,0.8-0.2,1.4v0.7h0.8c1.2,0,1.8,0.4,1.8,1.1c0,0.5-0.2,0.8-0.5,1c-0.3,0.1-0.8,0.2-1.3,0.2
				h-0.8v8.3c0,0.6-0.1,1.1-0.4,1.4c-0.3,0.3-0.7,0.5-1.1,0.5c-0.4,0-0.8-0.2-1.1-0.5c-0.3-0.3-0.4-0.8-0.4-1.4V503h-0.9
				c-0.5,0-0.8-0.1-1.1-0.3c-0.3-0.2-0.4-0.5-0.4-0.8C302,501.1,302.5,500.8,303.6,500.8z"/>
			<path fill="#3D3D3C" d="M313.8,508.7v2.6c0,0.6-0.2,1.1-0.5,1.4c-0.3,0.3-0.7,0.5-1.1,0.5c-0.5,0-0.8-0.2-1.1-0.5
				c-0.3-0.3-0.4-0.8-0.4-1.4v-8.7c0-1.4,0.5-2.1,1.5-2.1c0.5,0,0.9,0.2,1.1,0.5c0.2,0.3,0.4,0.8,0.4,1.5c0.4-0.6,0.8-1.1,1.1-1.5
				c0.4-0.3,0.9-0.5,1.6-0.5c0.7,0,1.3,0.2,1.9,0.5c0.6,0.3,0.9,0.8,0.9,1.3c0,0.4-0.1,0.7-0.4,0.9c-0.3,0.3-0.5,0.4-0.9,0.4
				c-0.1,0-0.4-0.1-0.8-0.2c-0.4-0.1-0.8-0.2-1.2-0.2c-0.5,0-0.8,0.1-1.1,0.4c-0.3,0.2-0.5,0.6-0.7,1.1c-0.2,0.5-0.3,1-0.3,1.7
				C313.9,507,313.8,507.8,313.8,508.7z"/>
			<path fill="#3D3D3C" d="M328.2,507.6h-6.1c0,0.7,0.2,1.3,0.4,1.9c0.3,0.5,0.6,1,1.1,1.2c0.5,0.3,1,0.4,1.5,0.4c0.4,0,0.7,0,1-0.1
				c0.3-0.1,0.6-0.2,0.9-0.4c0.3-0.2,0.6-0.4,0.8-0.6c0.2-0.2,0.6-0.5,1-0.9c0.2-0.1,0.4-0.2,0.7-0.2c0.3,0,0.6,0.1,0.8,0.3
				c0.2,0.2,0.3,0.4,0.3,0.7c0,0.3-0.1,0.6-0.3,1c-0.2,0.4-0.6,0.7-1,1.1c-0.4,0.3-1,0.6-1.7,0.9c-0.7,0.2-1.5,0.3-2.3,0.3
				c-2,0-3.6-0.6-4.7-1.7c-1.1-1.1-1.7-2.7-1.7-4.7c0-0.9,0.1-1.8,0.4-2.6c0.3-0.8,0.7-1.5,1.2-2c0.5-0.6,1.2-1,1.9-1.3
				c0.8-0.3,1.6-0.5,2.6-0.5c1.2,0,2.3,0.3,3.2,0.8c0.9,0.5,1.5,1.2,2,2c0.4,0.8,0.7,1.7,0.7,2.5c0,0.8-0.2,1.3-0.7,1.5
				C329.7,507.5,329,507.6,328.2,507.6z M322.1,505.8h5.7c-0.1-1.1-0.4-1.9-0.9-2.4c-0.5-0.5-1.2-0.8-2-0.8c-0.8,0-1.4,0.3-1.9,0.8
				C322.5,504,322.2,504.8,322.1,505.8z"/>
			<path fill="#3D3D3C" d="M341.3,507.6h-6.1c0,0.7,0.2,1.3,0.4,1.9c0.3,0.5,0.7,1,1.1,1.2c0.5,0.3,1,0.4,1.5,0.4c0.4,0,0.7,0,1-0.1
				c0.3-0.1,0.6-0.2,0.9-0.4c0.3-0.2,0.6-0.4,0.8-0.6c0.2-0.2,0.6-0.5,0.9-0.9c0.2-0.1,0.4-0.2,0.7-0.2c0.3,0,0.6,0.1,0.8,0.3
				c0.2,0.2,0.3,0.4,0.3,0.7c0,0.3-0.1,0.6-0.3,1c-0.2,0.4-0.6,0.7-1,1.1c-0.4,0.3-1,0.6-1.7,0.9c-0.7,0.2-1.5,0.3-2.3,0.3
				c-2,0-3.6-0.6-4.7-1.7c-1.1-1.1-1.7-2.7-1.7-4.7c0-0.9,0.1-1.8,0.4-2.6c0.3-0.8,0.7-1.5,1.2-2c0.5-0.6,1.2-1,2-1.3
				c0.8-0.3,1.6-0.5,2.6-0.5c1.2,0,2.3,0.3,3.2,0.8c0.9,0.5,1.5,1.2,2,2c0.4,0.8,0.7,1.7,0.7,2.5c0,0.8-0.2,1.3-0.7,1.5
				C342.7,507.5,342.1,507.6,341.3,507.6z M335.1,505.8h5.7c-0.1-1.1-0.4-1.9-0.9-2.4c-0.5-0.5-1.2-0.8-2-0.8
				c-0.8,0-1.4,0.3-1.9,0.8C335.5,504,335.2,504.8,335.1,505.8z"/>
			<path fill="#3D3D3C" d="M348.1,502.2v0.4c0.6-0.7,1.2-1.3,1.8-1.6c0.6-0.3,1.4-0.5,2.2-0.5c1,0,1.9,0.3,2.7,0.7
				c0.8,0.5,1.5,1.2,1.9,2.2c0.5,1,0.7,2.1,0.7,3.4c0,1-0.1,1.8-0.4,2.7c-0.3,0.8-0.6,1.5-1.1,2c-0.5,0.5-1,1-1.7,1.3
				c-0.7,0.3-1.3,0.4-2.1,0.4c-0.9,0-1.6-0.2-2.3-0.5c-0.6-0.4-1.2-0.9-1.7-1.6v4.7c0,1.4-0.5,2.1-1.5,2.1c-0.6,0-1-0.2-1.2-0.5
				c-0.2-0.4-0.3-0.9-0.3-1.6v-13.5c0-0.6,0.1-1,0.4-1.3c0.3-0.3,0.6-0.4,1.1-0.4c0.4,0,0.8,0.2,1.1,0.5
				C348,501.2,348.1,501.7,348.1,502.2z M354.3,506.8c0-0.8-0.1-1.5-0.4-2.1c-0.3-0.6-0.6-1-1-1.4c-0.4-0.3-0.9-0.5-1.5-0.5
				c-0.9,0-1.6,0.3-2.2,1c-0.6,0.7-0.9,1.7-0.9,3c0,1.2,0.3,2.2,0.9,2.9c0.6,0.7,1.3,1,2.2,1c0.5,0,1-0.2,1.4-0.4
				c0.4-0.3,0.8-0.8,1.1-1.4C354.1,508.4,354.3,507.7,354.3,506.8z"/>
			<path fill="#3D3D3C" d="M360.6,499c-0.4,0-0.8-0.1-1.1-0.4c-0.3-0.3-0.5-0.6-0.5-1.1c0-0.4,0.2-0.8,0.5-1.1
				c0.3-0.3,0.7-0.4,1.1-0.4c0.4,0,0.8,0.1,1.1,0.4c0.3,0.3,0.5,0.6,0.5,1.1c0,0.5-0.2,0.9-0.5,1.1C361.3,498.9,361,499,360.6,499z
				 M362.1,502.3v9.1c0,0.6-0.2,1.1-0.4,1.4c-0.3,0.3-0.7,0.5-1.1,0.5c-0.5,0-0.8-0.2-1.1-0.5c-0.3-0.3-0.4-0.8-0.4-1.4v-9
				c0-0.6,0.1-1.1,0.4-1.4c0.3-0.3,0.7-0.5,1.1-0.5c0.5,0,0.8,0.2,1.1,0.5C362,501.3,362.1,501.7,362.1,502.3z"/>
			<path fill="#3D3D3C" d="M372.2,511.8l-2.8-4.5l-1.7,1.6v2.5c0,0.6-0.2,1.1-0.5,1.4c-0.3,0.3-0.7,0.5-1.1,0.5
				c-0.5,0-0.9-0.2-1.1-0.5c-0.3-0.3-0.4-0.8-0.4-1.4V498c0-0.7,0.1-1.2,0.4-1.6c0.3-0.4,0.7-0.5,1.2-0.5c0.5,0,0.9,0.2,1.1,0.5
				c0.3,0.3,0.4,0.8,0.4,1.4v7.6l3.5-3.7c0.4-0.5,0.8-0.8,1-0.9c0.2-0.2,0.5-0.3,0.8-0.3c0.4,0,0.7,0.1,1,0.4
				c0.3,0.2,0.4,0.6,0.4,0.9c0,0.5-0.4,1.1-1.3,1.8l-1.7,1.5l3.2,5.1c0.2,0.4,0.4,0.7,0.5,0.9c0.1,0.2,0.2,0.4,0.2,0.6
				c0,0.5-0.1,0.9-0.4,1.2c-0.3,0.3-0.6,0.4-1.1,0.4c-0.4,0-0.7-0.1-0.9-0.3C372.8,512.7,372.5,512.3,372.2,511.8z"/>
			<path fill="#3D3D3C" d="M379,513.2c-0.5,0-0.9-0.2-1.2-0.5c-0.3-0.3-0.5-0.7-0.5-1.3c0-0.5,0.2-0.9,0.5-1.2
				c0.3-0.3,0.7-0.5,1.2-0.5c0.5,0,0.9,0.2,1.2,0.5c0.3,0.3,0.5,0.7,0.5,1.2c0,0.5-0.2,1-0.5,1.3C379.9,513.1,379.5,513.2,379,513.2
				z"/>
			<path fill="#3D3D3C" d="M394.6,509.3c0,0.4-0.1,0.8-0.3,1.3c-0.2,0.4-0.6,0.9-1.1,1.3c-0.5,0.4-1.1,0.7-1.8,1
				c-0.7,0.2-1.5,0.4-2.5,0.4c-1.9,0-3.4-0.6-4.5-1.7c-1.1-1.1-1.6-2.6-1.6-4.5c0-1.3,0.2-2.4,0.7-3.4c0.5-1,1.2-1.7,2.2-2.3
				c0.9-0.5,2.1-0.8,3.4-0.8c0.8,0,1.6,0.1,2.2,0.4c0.7,0.2,1.2,0.5,1.7,0.9c0.5,0.4,0.8,0.8,1.1,1.2c0.3,0.4,0.4,0.8,0.4,1.2
				c0,0.4-0.1,0.7-0.4,0.9c-0.3,0.3-0.6,0.4-1,0.4c-0.3,0-0.5-0.1-0.6-0.2c-0.2-0.1-0.4-0.4-0.6-0.7c-0.4-0.6-0.8-1-1.2-1.3
				c-0.4-0.3-0.9-0.4-1.6-0.4c-0.9,0-1.7,0.4-2.2,1.1c-0.6,0.7-0.8,1.7-0.8,3c0,0.6,0.1,1.1,0.2,1.6c0.1,0.5,0.3,0.9,0.6,1.3
				c0.3,0.3,0.6,0.6,1,0.8c0.4,0.2,0.8,0.3,1.3,0.3c0.6,0,1.2-0.1,1.6-0.4c0.5-0.3,0.8-0.7,1.2-1.3c0.2-0.3,0.4-0.6,0.6-0.8
				c0.2-0.2,0.5-0.3,0.8-0.3c0.4,0,0.7,0.1,1,0.4C394.5,508.7,394.6,509,394.6,509.3z"/>
			<path fill="#3D3D3C" d="M408.1,506.9c0,0.9-0.1,1.8-0.4,2.6c-0.3,0.8-0.7,1.5-1.3,2c-0.5,0.6-1.2,1-2,1.3
				c-0.8,0.3-1.6,0.5-2.6,0.5c-0.9,0-1.8-0.2-2.6-0.5c-0.8-0.3-1.4-0.7-2-1.3c-0.6-0.6-1-1.3-1.3-2c-0.3-0.8-0.4-1.6-0.4-2.6
				c0-1,0.2-1.8,0.4-2.6c0.3-0.8,0.7-1.5,1.3-2c0.5-0.6,1.2-1,2-1.3c0.8-0.3,1.6-0.5,2.6-0.5c1,0,1.8,0.2,2.6,0.5
				c0.8,0.3,1.4,0.7,2,1.3c0.6,0.6,1,1.2,1.3,2C407.9,505.1,408.1,505.9,408.1,506.9z M404.9,506.9c0-1.3-0.3-2.3-0.8-3
				c-0.6-0.7-1.3-1.1-2.3-1.1c-0.6,0-1.2,0.2-1.6,0.5c-0.5,0.3-0.8,0.8-1.1,1.4c-0.3,0.6-0.4,1.3-0.4,2.2c0,0.8,0.1,1.5,0.4,2.1
				c0.3,0.6,0.6,1.1,1.1,1.4c0.5,0.3,1,0.5,1.6,0.5c1,0,1.7-0.4,2.3-1.1C404.7,509.1,404.9,508.1,404.9,506.9z"/>
			<path fill="#3D3D3C" d="M420,507.1v4.2c0,0.7-0.1,1.1-0.4,1.5c-0.3,0.3-0.7,0.5-1.2,0.5c-0.5,0-0.9-0.2-1.1-0.5
				c-0.3-0.3-0.4-0.8-0.4-1.5v-5c0-0.8,0-1.4-0.1-1.8c-0.1-0.4-0.2-0.8-0.4-1.1c-0.2-0.3-0.6-0.4-1.1-0.4c-1,0-1.7,0.4-2,1.1
				c-0.3,0.7-0.5,1.7-0.5,3v4.2c0,0.7-0.1,1.1-0.4,1.5c-0.3,0.3-0.7,0.5-1.2,0.5c-0.5,0-0.9-0.2-1.2-0.5c-0.3-0.3-0.5-0.8-0.5-1.5
				v-9c0-0.6,0.1-1,0.4-1.3c0.3-0.3,0.6-0.5,1.1-0.5c0.4,0,0.8,0.1,1.1,0.4c0.3,0.3,0.4,0.7,0.4,1.2v0.3c0.5-0.6,1.1-1.1,1.7-1.4
				c0.6-0.3,1.3-0.5,2.1-0.5c0.8,0,1.5,0.2,2,0.5c0.6,0.3,1,0.8,1.4,1.4c0.5-0.6,1.1-1.1,1.7-1.4c0.6-0.3,1.3-0.5,2-0.5
				c0.9,0,1.6,0.2,2.2,0.5c0.6,0.3,1.1,0.8,1.4,1.4c0.3,0.6,0.4,1.5,0.4,2.7v6.1c0,0.7-0.2,1.1-0.4,1.5c-0.3,0.3-0.7,0.5-1.2,0.5
				c-0.5,0-0.9-0.2-1.2-0.5c-0.3-0.3-0.5-0.8-0.5-1.5V506c0-0.7,0-1.2-0.1-1.6c-0.1-0.4-0.2-0.7-0.5-1c-0.3-0.3-0.6-0.4-1.1-0.4
				c-0.4,0-0.8,0.1-1.2,0.4c-0.4,0.2-0.7,0.6-0.9,1C420.2,504.8,420,505.7,420,507.1z"/>
			<g>
				<path fill-rule="evenodd" clip-rule="evenodd" fill="#3D3D3C" d="M281.9,514.3c0,0-1.7-0.3-3.4-2.1c-1.7-1.8-2-3.8-2-3.8
					s2.1,0.5,3.7,0.7c2.7,0.3,5.1,0.1,6.3,0c2.5-0.3,3.8-0.7,4.3-0.9c3.2-0.8,6.2-2.8,6.2-2.8s0.4,2.4-1.4,5c-0.7,1-2.1,2.2-3.7,3
					C286.5,515.8,281.9,514.3,281.9,514.3z"/>
				<path fill-rule="evenodd" clip-rule="evenodd" fill="#3D3D3C" d="M294.8,500.8c-0.6-0.7-2.6-4.1-6.5-4.6c-1-0.1-6.4,0.1-9.6,3.1
					c-0.3,0.3-2,1.7-2.5,4.4c-0.4,2.1,0.3,4.4,0.3,4.4s3.6,0.7,6.3,0.7c4.3-0.1,6.4-0.5,8.6-1.2c3.3-1,5.6-2.7,5.6-2.7
					S295.4,501.5,294.8,500.8z M282.5,505.9c-1.8,0.1-3.4-1.2-3.5-3c-0.1-1.8,1.3-3.3,3.1-3.5c1.8-0.1,3.4,1.2,3.5,3
					C285.7,504.2,284.3,505.8,282.5,505.9z M291.7,503.6c-1.1,0.1-2.1-0.8-2.2-1.9c-0.1-1.1,0.8-2.1,1.9-2.2
					c1.1-0.1,2.1,0.8,2.2,1.9C293.7,502.5,292.9,503.5,291.7,503.6z"/>
				<path fill-rule="evenodd" clip-rule="evenodd" fill="#3D3D3C" d="M293.3,498.5l1-1.2c0,0,1.4,0.7,2.4,2c0.9,1.3,1.5,2.5,1.5,2.5
					l-1.7,1c0,0-0.5-1.3-1.3-2.3C294.4,499.5,293.3,498.5,293.3,498.5z"/>
				<path fill-rule="evenodd" clip-rule="evenodd" fill="#3D3D3C" d="M296.6,499.3c0.3-0.2,0.7-0.2,0.7-0.6c0-0.4-0.3-1.1,0.5-1.4
					c0.8-0.3,0.3,0.2,0.1,0.6c-0.3,0.3-0.2,0.5-0.1,1c0,0.5-0.3,0.6-0.8,0.9C296.3,500.1,296.3,499.5,296.6,499.3z"/>
				<path fill-rule="evenodd" clip-rule="evenodd" fill="#3D3D3C" d="M277.5,500.1c0,0-1.2,1.4-1.5,2.7c-0.3,1.3-0.2,2.8-0.2,2.8
					l-1.8-0.6c0,0-0.1-1.7,0.7-3.2c0.9-1.6,2.1-2.3,2.1-2.3L277.5,500.1z"/>
				<path fill-rule="evenodd" clip-rule="evenodd" fill="#3D3D3C" d="M274.9,501.7c-0.3-0.2-0.3-0.6-0.5-0.9
					c-0.2-0.3-0.3-0.1-0.8-0.1c-0.5,0-0.5-0.2-0.7-0.4c-0.1-0.1-0.2,0.4-0.2,0.4s0.1,0.4,0.7,0.5c0.6,0,0.5-0.2,0.8,0.3
					c0.2,0.5,0.7,0.9,0.7,0.9S275.2,501.9,274.9,501.7z"/>
				<path fill-rule="evenodd" clip-rule="evenodd" fill="#3D3D3C" d="M284.4,495.1c2.9-0.7,4.7,0.1,4.7,0.1l-0.2,0.8
					c0,0-2.1-0.1-3.8,0.1c-1.7,0.2-2.5,0.8-2.5,0.8l-0.4-0.8C282.3,496.1,283.1,495.4,284.4,495.1z"/>
				<path fill-rule="evenodd" clip-rule="evenodd" fill="#3D3D3C" d="M285.2,493.9l0.4-0.2l0.5,1.5l-0.4,0.2L285.2,493.9z"/>
				<path fill-rule="evenodd" clip-rule="evenodd" fill="#3D3D3C" d="M298.1,496.6c0.4,0,0.8,0.3,0.8,0.7c0,0.4-0.3,0.8-0.7,0.8
					c-0.4,0-0.8-0.3-0.8-0.7C297.3,496.9,297.7,496.6,298.1,496.6z"/>
				<path fill-rule="evenodd" clip-rule="evenodd" fill="#3D3D3C" d="M272.5,499.4c0.4,0,0.8,0.3,0.8,0.7c0,0.4-0.3,0.8-0.7,0.8
					c-0.4,0-0.8-0.3-0.8-0.7C271.7,499.8,272,499.4,272.5,499.4z"/>
				<path fill-rule="evenodd" clip-rule="evenodd" fill="#3D3D3C" d="M285.6,492c0.7,0,1.2,0.5,1.3,1.1c0,0.6-0.5,1.2-1.1,1.3
					c-0.7,0-1.2-0.5-1.3-1.1C284.4,492.6,284.9,492,285.6,492z"/>
			</g>
		</g>
		<g>
			<path fill="#3D3D3C" d="M192.4,511.5c0,0.7-0.5,1.2-1.1,1.2c-0.6,0-1-0.3-1.1-0.9c-0.4,0.7-1.3,1-2,1c-2.2,0-3.6-2-3.6-4.1
				c0-2.1,1.2-4.3,3.5-4.3c0.8,0,1.5,0.3,2.1,0.8v-3c0-0.7,0.5-1.2,1.1-1.2c0.6,0,1.1,0.5,1.1,1.2V511.5z M188.5,506.4
				c-1.1,0-1.7,1.2-1.7,2.2c0,1,0.6,2.2,1.7,2.2c1.2,0,1.7-1.2,1.7-2.3C190.2,507.5,189.7,506.4,188.5,506.4z"/>
			<path fill="#3D3D3C" d="M195.4,509.3c0.2,1.1,1,1.6,2.1,1.6c1.1,0,1.9-0.9,2.5-0.9c0.5,0,0.9,0.5,0.9,0.9c0,0.9-1.9,1.8-3.6,1.8
				c-2.5,0-4.1-1.8-4.1-4.2c0-2.2,1.6-4.2,3.9-4.2c2.4,0,3.9,2.2,3.9,4c0,0.7-0.3,1-1,1H195.4z M198.9,507.8c-0.1-1-0.7-1.7-1.8-1.7
				c-1,0-1.6,0.7-1.7,1.7H198.9z"/>
			<path fill="#3D3D3C" d="M206.4,506.9c-0.4,0-1.2-0.6-2-0.6c-0.4,0-0.7,0.2-0.7,0.6c0,1,3.8,0.9,3.8,3.4c0,1.5-1.2,2.6-3.1,2.6
				c-1.2,0-3.1-0.7-3.1-1.7c0-0.3,0.3-1,0.9-1c0.8,0,1.2,0.7,2.3,0.7c0.7,0,0.9-0.2,0.9-0.6c0-1-3.8-0.8-3.8-3.4
				c0-1.5,1.2-2.6,3-2.6c1.1,0,2.7,0.5,2.7,1.6C207.3,506.4,206.9,506.9,206.4,506.9z"/>
			<path fill="#3D3D3C" d="M210.6,502.4c0,0.7-0.5,1.3-1.2,1.3c-0.7,0-1.2-0.6-1.2-1.3c0-0.6,0.6-1.2,1.2-1.2
				C210,501.2,210.6,501.7,210.6,502.4z M208.3,505.7c0-0.7,0.5-1.2,1.1-1.2c0.6,0,1.1,0.5,1.1,1.2v5.8c0,0.7-0.5,1.2-1.1,1.2
				c-0.6,0-1.1-0.5-1.1-1.2V505.7z"/>
			<path fill="#3D3D3C" d="M219.1,512c0,2.6-1.7,4-4.2,4c-0.9,0-3.5-0.4-3.5-1.6c0-0.4,0.5-1,0.9-1c0.7,0,1.5,0.7,2.7,0.7
				c1.1,0,1.9-0.6,1.9-1.7v-0.5h0c-0.5,0.7-1.2,1-2.2,1c-2.3,0-3.4-2-3.4-4.2c0-2.2,1.4-4.3,3.6-4.3c0.7,0,1.6,0.3,2,1
				c0.1-0.6,0.5-0.9,1.1-0.9c0.6,0,1.1,0.5,1.1,1.2V512z M215.2,506.4c-1.1,0-1.7,1.2-1.7,2.2c0,1.2,0.6,2.2,1.7,2.2
				c1.2,0,1.7-1.1,1.7-2.2C217,507.6,216.4,506.4,215.2,506.4z"/>
			<path fill="#3D3D3C" d="M220.4,505.7c0-0.7,0.5-1.2,1.1-1.2c0.6,0,0.9,0.3,1,0.8c0.4-0.6,1.1-0.9,2.1-0.9c1.7,0,3,1.1,3,2.9v4.2
				c0,0.7-0.5,1.2-1.1,1.2c-0.6,0-1.1-0.5-1.1-1.2v-3.8c0-1-0.6-1.5-1.4-1.5c-0.9,0-1.4,0.7-1.4,1.5v3.8c0,0.7-0.5,1.2-1.1,1.2
				c-0.6,0-1.1-0.5-1.1-1.2V505.7z"/>
			<path fill="#3D3D3C" d="M230.6,509.3c0.2,1.1,1,1.6,2.1,1.6c1.1,0,1.9-0.9,2.5-0.9c0.5,0,0.9,0.5,0.9,0.9c0,0.9-1.9,1.8-3.6,1.8
				c-2.5,0-4.1-1.8-4.1-4.2c0-2.2,1.6-4.2,3.9-4.2c2.4,0,3.9,2.2,3.9,4c0,0.7-0.3,1-1,1H230.6z M234,507.8c-0.1-1-0.7-1.7-1.7-1.7
				c-1,0-1.6,0.7-1.7,1.7H234z"/>
			<path fill="#3D3D3C" d="M244.5,511.5c0,0.7-0.5,1.2-1.1,1.2c-0.6,0-1-0.3-1.1-0.9c-0.4,0.7-1.3,1-2,1c-2.2,0-3.6-2-3.6-4.1
				c0-2.1,1.2-4.3,3.5-4.3c0.8,0,1.5,0.3,2.1,0.8v-3c0-0.7,0.5-1.2,1.1-1.2c0.6,0,1.1,0.5,1.1,1.2V511.5z M240.6,506.4
				c-1.1,0-1.7,1.2-1.7,2.2c0,1,0.6,2.2,1.7,2.2c1.2,0,1.7-1.2,1.7-2.3C242.3,507.5,241.7,506.4,240.6,506.4z"/>
			<path fill="#3D3D3C" d="M249.8,502.1c0-0.7,0.5-1.2,1.1-1.2c0.6,0,1.1,0.5,1.1,1.2v3c0.6-0.5,1.3-0.8,2.1-0.8
				c2.4,0,3.5,2.2,3.5,4.3c0,2.1-1.4,4.1-3.6,4.1c-0.7,0-1.6-0.3-2-1c-0.1,0.6-0.5,0.9-1.1,0.9c-0.6,0-1.1-0.5-1.1-1.2V502.1z
				 M253.7,510.8c1.1,0,1.7-1.2,1.7-2.2c0-1-0.6-2.2-1.7-2.2c-1.2,0-1.7,1.1-1.7,2.2C252,509.6,252.5,510.8,253.7,510.8z"/>
			<path fill="#3D3D3C" d="M258,505.9c-0.1-0.2-0.1-0.3-0.1-0.6c0-0.5,0.6-0.9,1-0.9c0.5,0,0.9,0.3,1.1,0.8l1.5,4.1l1.6-4.1
				c0.2-0.5,0.6-0.8,1.1-0.8c0.5,0,1,0.4,1,0.9c0,0.2,0,0.4-0.1,0.6l-3.7,9.1c-0.2,0.5-0.5,0.9-1,0.9c-0.7,0-1.1-0.5-1.1-0.9
				c0-0.2,0.1-0.4,0.1-0.6l1-2.4L258,505.9z"/>
		</g>
	</g>
</g>
<g id="Objects">
	<g>
		
			<image overflow="visible" opacity="0.3" width="1307" height="572" xlink:href="2B6584FE.png"  transform="matrix(0.48 0 0 0.48 -8 -5)">
		</image>
		<g>
			<g>
				<g>
					<path display="none" fill="#F1F1F1" d="M78.1,263.2c-0.2,0-0.5,0-0.7,0c-5.4-0.3-9.8-4.6-10.2-10l-7-77.7
						c-1.7,1-3.7,1.6-5.7,1.6l-51,0.1c-4.7,0-8.5-3.8-8.5-8.5c0-2.3,0.9-4.4,2.5-6c1.6-1.6,3.7-2.5,6-2.5l46.9,0l7.5-20.3
						c1.2-3.3,4.4-5.6,8-5.6c0.4,0,0.8,0,1.1,0.1c4,0.5,7,3.7,7.3,7.7l2.8,31.6l9.4-145.5c0.3-4.4,4-7.9,8.4-8
						c4.5,0,8.2,3.5,8.5,7.9l6.6,91l0.1-0.5c0.9-3.9,4.3-6.6,8.3-6.7c4,0,7.4,2.7,8.3,6.6l9.8,41.8l34,0L180.8,75
						c0.5-4.3,4.1-7.5,8.4-7.5c4.4,0,8,3.3,8.4,7.6l8,72.7l2.2-11.6c0.7-3.9,4-6.7,7.9-6.9c0.1,0,0.3,0,0.4,0c3.8,0,7.1,2.5,8.1,6.1
						l7,24l30.8,0c-1.8-1.6-3.5-3.3-5.2-4.9c-5.7-5.5-12.3-12.1-18.1-19.6c-6.6-8.6-10.9-16.8-13-25.1c-0.5-2.1-1.1-4.7-1.3-7.4
						c-0.2-2.3-0.3-4.7-0.2-7.3c0.2-5,1-9.8,2.4-14.4c1.4-4.6,3.4-9,6-13.3c2.5-4.1,5.6-7.9,9.2-11.3c3.7-3.5,7.7-6.3,11.9-8.6
						c4.1-2.2,8.7-4,13.5-5.2c0.8-0.2,1.7-0.4,2.4-0.5c0.3-0.1,0.6-0.1,0.9-0.2c0.2,0,0.4-0.1,0.7-0.1c0.3,0,0.6-0.1,0.8-0.1
						c0.8-0.1,1.7-0.3,2.6-0.3c0.9-0.1,2.1-0.2,3.4-0.3c0.7,0,1.4-0.1,2.2-0.1c0.3,0,1.4,0,1.4,0c0.1,0,0.3,0,0.4,0
						c2.8,0.2,5.2,0.5,7.6,1.1c2.3,0.6,4.8,1.4,7.2,2.5c5.8,2.5,11.5,6.3,17.4,11.5c1.7-1.6,3.3-3.1,5-4.5c4.3-3.5,8.3-6.2,12.2-8.1
						c4.9-2.4,9.9-3.9,14.9-4.3c1.2-0.1,2.5-0.1,3.7-0.1c3.6,0,7.3,0.4,11.1,1.1c9.9,1.9,19,6.4,26.4,12.9
						c7.4,6.5,13.1,14.9,16.2,24.4c1.5,4.5,2.5,9.4,2.9,14.4c0.4,5.4,0,10.3-1.1,15.1c-1.8,8.2-5.9,16.6-12.4,25.7
						c-5.6,7.8-12,14.7-17.5,20.4c-2,2-4,4.1-6,6.1l20.9,0l4.1-11.5c1.2-3.4,4.4-5.6,8-5.6c0.3,0,0.5,0,0.8,0c3.9,0.4,7,3.3,7.6,7.2
						l1.4,9l2.4-37.1c0.3-4.2,3.5-7.6,7.8-7.9c0.2,0,0.5,0,0.7,0c3.9,0,7.3,2.7,8.3,6.5l9.7,40.5l24.8-0.1l9.9-26.8
						c1.2-3.3,4.4-5.6,8-5.6c0.4,0,0.7,0,1.1,0.1c4,0.5,7,3.7,7.4,7.7l1.4,16L503.9,3c0.3-4.4,4-7.9,8.4-8c4.5,0,8.2,3.5,8.5,7.9
						l7.8,106.7c1.5-2.5,4.2-4.2,7.3-4.2c4,0,7.4,2.7,8.3,6.6l11.3,48h52.2c4.7,0,8.5,3.8,8.5,8.5c0,4.7-3.8,8.5-8.5,8.5h-58.9
						c-4,0-7.4-2.7-8.3-6.6l-4.3-18.4l-3.3,15c-0.5,2.3-1.9,4.3-3.9,5.5c-1.4,0.9-3,1.3-4.6,1.3c-0.7,0-1.3-0.1-1.9-0.2
						c-3.8-0.9-6.5-4.1-6.8-8l-2.8-38.2l-8.2,127.1c-0.3,4.8-4.3,8.5-9.1,8.5c0,0,0,0,0,0c-0.2,0-0.4,0-0.6,0
						c-4.5-0.3-8.1-3.8-8.5-8.3l-7.3-81.3c-1.7,2.2-4.4,3.5-7.3,3.5l-36.3,0.1c-2.7,0-5.1-1.1-6.8-3l-3.5,53.9
						c-0.3,5-4.5,8.9-9.5,8.9c-0.2,0-0.4,0-0.5,0c-4.4-0.3-8.1-3.6-8.8-8l-8.2-53.1c-0.7,0.2-1.4,0.3-2.2,0.3l-44.6,0
						c-5.3,0-9.6-4.3-9.6-9.6c0-3.4,1.8-6.5,4.6-8.2l3-2.9c4.7-4.6,9.5-9.4,14.1-14.1c5.1-5.3,10.9-11.6,15.9-18.5
						c5.1-7.1,8.2-13.5,9.6-19.6c0.7-3.2,1-6.5,0.7-10.1c-0.3-3.6-0.9-7-2-10.2c-2.2-6.7-6.1-12.6-11.3-17.1
						c-5.1-4.5-11.5-7.7-18.4-9c-2.7-0.5-5.3-0.8-7.9-0.8c-0.8,0-1.6,0-2.4,0.1c-2.7,0.2-5.7,1.1-8.7,2.6c-2.8,1.4-5.6,3.2-8.9,5.9
						c-2.7,2.2-5.4,4.9-8.3,8c-1.9,2-4.5,3.2-7.3,3.2c-2.5,0-4.8-0.9-6.6-2.6c-0.1-0.1-0.2-0.2-0.3-0.3
						c-6.5-6.4-12.1-10.5-17.6-12.9c-1.5-0.7-3-1.2-4.4-1.5c-1.4-0.4-2.7-0.5-4.4-0.7c0,0-0.8,0-1,0c-0.4,0-0.7,0-1.1,0
						c-0.1,0-0.2,0-0.4,0c-0.8,0-1.6,0.1-2.5,0.2l-0.2,0c-0.4,0-0.9,0.1-1.4,0.2c-0.3,0.1-0.7,0.1-1,0.1c-0.3,0.1-0.6,0.1-0.9,0.2
						c-0.5,0.1-1,0.2-1.4,0.3l-0.1,0c-3.5,0.8-6.7,2.1-9.6,3.6c-3,1.6-5.7,3.6-8.3,6c-2.5,2.4-4.7,5-6.4,7.8c-1.8,3-3.2,6.1-4.2,9.3
						c-1,3.2-1.6,6.6-1.7,10.2c-0.1,1.8,0,3.4,0.1,5.1c0.1,1.4,0.4,2.9,0.9,4.9c1.5,5.9,4.8,12.1,10,18.8
						c5.1,6.6,11.1,12.6,16.4,17.7c5,4.8,10.4,9.6,15.5,14.3l1.3,1.2c3.2,1.8,5.2,5.1,5.2,8.7v0.4c0,2.7-1,5.2-2.9,7.1
						c-1.9,1.9-4.4,2.9-7.1,2.9c-0.9,0-1.7-0.1-2.6-0.3l-51.9,0c-3.2,0-6.1-1.5-7.9-3.9l-4.4,23.2c-0.9,4.8-5.1,8.3-10,8.3
						c-0.6,0-1.3-0.1-1.9-0.2c-4.4-0.8-7.7-4.4-8.2-8.9l-4.9-44.7l-2.1,17.8c-0.6,5.2-5.1,9.2-10.3,9.2l-45.1,0
						c-4.9,0-9.1-3.3-10.2-8.1l-2.5-10.5l-1.6,7c-1.1,4.8-5.4,8.3-10.3,8.3c-0.8,0-1.5-0.1-2.3-0.2c-4.5-1-7.9-4.9-8.2-9.5
						l-0.8-11.5L89,253c-0.2,2.9-1.5,5.6-3.7,7.5C83.3,262.3,80.8,263.2,78.1,263.2z"/>
					<path fill="#C0272D" d="M78.1,258.2c-0.1,0-0.3,0-0.4,0c-2.9-0.2-5.3-2.5-5.6-5.4l-8.4-94.2l-3.5,9.5c-0.9,2.4-3.2,4-5.7,4
						l-51,0.1c0,0,0,0,0,0c-1.9,0-3.5-1.6-3.5-3.5c0-1.9,1.6-3.5,3.5-3.5l50.4,0l8.7-23.6c0.6-1.5,2.1-2.5,3.7-2.3
						c1.6,0.2,2.9,1.5,3,3.2l8.6,96.4L91.5,28.4c0.1-1.8,1.6-3.3,3.5-3.3c0,0,0,0,0,0c1.8,0,3.4,1.4,3.5,3.2l9.1,125l7.5-33.7
						c0.4-1.6,1.8-2.7,3.4-2.7c0,0,0,0,0,0c1.6,0,3,1.1,3.4,2.7l10.7,45.6l42.4,0l10.8-89.6c0.2-1.8,1.7-3.1,3.5-3.1c0,0,0,0,0,0
						c1.8,0,3.3,1.3,3.5,3.1l11.7,105.8l8.4-44.3c0.3-1.6,1.7-2.8,3.3-2.8c1.7-0.1,3.1,1,3.5,2.5l8.1,27.6l47.5,0
						c-4.9-4.4-9.9-8.9-14.7-13.5c-5.6-5.3-12-11.8-17.6-19c-6.2-8-10.2-15.6-12.1-23.3c-0.4-1.9-0.9-4.2-1.1-6.6
						c-0.2-2.1-0.3-4.3-0.2-6.7c0.2-4.6,0.9-9,2.2-13.1c1.2-4.2,3.1-8.3,5.4-12.1c2.3-3.7,5.1-7.2,8.4-10.3c3.4-3.2,7-5.8,10.8-7.8
						c3.8-2.1,8-3.7,12.4-4.7c0.7-0.2,1.4-0.3,2.1-0.5c0.3-0.1,0.7-0.1,1-0.2c0.1,0,0.2,0,0.3,0c0.3,0,0.7-0.1,1-0.2
						c0.7-0.1,1.4-0.2,2.2-0.3c1-0.1,2.1-0.2,3.2-0.3c1.1-0.1,2-0.1,2.9-0.1l0.4,0c0.1,0,0.1,0,0.2,0c2.5,0.1,4.6,0.5,6.7,1
						c2,0.5,4.2,1.3,6.4,2.2c8.1,3.6,14.9,9.3,19.6,13.8c2.7-2.8,5.3-5.3,8-7.5c4-3.3,7.6-5.7,11.2-7.4c4.3-2.2,8.8-3.4,13.1-3.8
						c4.3-0.3,8.8,0,13.5,0.9c9,1.8,17.3,5.8,24,11.8c6.8,5.9,11.9,13.6,14.8,22.3c1.4,4.1,2.3,8.6,2.6,13.2c0.3,4.8,0,9.3-1,13.6
						c-1.7,7.6-5.5,15.4-11.6,23.9c-5.5,7.6-11.7,14.3-17,19.9c-4.7,4.9-9.6,9.7-14.4,14.4l-0.1,0.1l36.6,0l5.3-14.8
						c0.5-1.5,2-2.5,3.6-2.3c1.6,0.2,2.9,1.4,3.1,3l8.4,54.3l5.3-82.8c0.1-1.7,1.5-3.1,3.2-3.3c1.7-0.2,3.3,1,3.7,2.7l10.7,44.3
						l32.3-0.1l11.1-30.1c0.6-1.5,2.1-2.5,3.7-2.3c1.6,0.2,2.9,1.5,3,3.2l7.2,80.7L508.9,3.3c0.1-1.8,1.6-3.3,3.5-3.3c0,0,0,0,0,0
						c1.8,0,3.4,1.4,3.5,3.2L526,142.5l6.5-29.4c0.4-1.6,1.8-2.7,3.4-2.7c0,0,0,0,0,0c1.6,0,3,1.1,3.4,2.7l12.2,51.8h56.2
						c1.9,0,3.5,1.6,3.5,3.5s-1.6,3.5-3.5,3.5h-58.9c-1.6,0-3-1.1-3.4-2.7l-9.3-39.6L528,166c-0.2,1-0.8,1.8-1.7,2.3
						c-0.8,0.5-1.8,0.7-2.8,0.5c-1.6-0.4-2.8-1.8-2.9-3.4l-8.1-110.8l-12.9,199.7c-0.1,2.3-2.1,4-4.4,3.8c-2.1-0.1-3.7-1.7-3.8-3.7
						L482.4,152l-6.3,17.2c-0.6,1.7-2.2,2.8-4,2.8l-36.3,0.1c-2,0-3.7-1.4-4.2-3.3l-5.8-23.9l-5.3,82.9c-0.2,2.5-2.3,4.3-4.7,4.2
						c-2.1-0.1-3.8-1.7-4.1-3.8l-9.8-63.5l-1.2,3.4c-0.6,1.8-2.4,3-4.3,3l-44.5,0c-2.5,0-4.6-2.1-4.6-4.6c0-1.8,1-3.4,2.6-4.2
						l3.4-3.3c4.7-4.7,9.6-9.5,14.3-14.3c5.2-5.4,11.2-11.9,16.4-19.1c5.5-7.7,8.9-14.7,10.4-21.4c0.9-3.6,1.1-7.4,0.8-11.5
						c-0.3-4-1.1-7.9-2.3-11.4c-2.5-7.5-6.9-14.1-12.8-19.2c-5.8-5.1-13-8.6-20.7-10.2c-4-0.8-7.9-1-11.6-0.8
						c-3.4,0.3-7,1.3-10.5,3.1c-3.1,1.5-6.2,3.6-9.8,6.5c-2.9,2.4-5.8,5.2-8.8,8.5c-1.8,2-4.8,2.1-6.8,0.3c0,0-0.1-0.1-0.1-0.1
						c-7-6.9-13.1-11.3-19.2-14c-1.8-0.8-3.6-1.4-5.2-1.8c-1.7-0.4-3.3-0.7-5.4-0.8l-0.3,0c-0.9,0-1.6,0-2.4,0c0,0-0.1,0-0.1,0
						c-0.9,0-1.9,0.1-2.8,0.2c0,0-0.1,0-0.1,0c-0.5,0-1.1,0.1-1.7,0.2c-0.4,0.1-0.7,0.1-1.1,0.2c-0.3,0.1-0.7,0.1-1,0.2
						c-0.6,0.1-1.2,0.2-1.7,0.4c-3.9,1-7.5,2.3-10.8,4.1c-3.3,1.8-6.4,4-9.4,6.7c-2.8,2.7-5.3,5.7-7.2,8.9
						c-2.1,3.3-3.6,6.9-4.7,10.5c-1.1,3.6-1.7,7.4-1.9,11.4c-0.1,2,0,3.9,0.1,5.7c0.1,1.6,0.4,3.3,1,5.6c1.7,6.6,5.3,13.4,10.9,20.7
						c5.3,6.9,11.5,13.1,16.9,18.2c5.1,4.9,10.5,9.7,15.7,14.4l1.8,1.6c1.8,0.8,3,2.6,3,4.6v0.4c0,1.3-0.5,2.6-1.5,3.5
						c-1.4,1.4-3.5,1.8-5.4,1.1l-52.7,0c-2.2,0-4.2-1.5-4.9-3.6l-4.4-15.1l-8,42.1c-0.5,2.8-3.2,4.6-6,4.1c-2.2-0.4-3.9-2.2-4.2-4.5
						l-9.7-87.8l-7.3,60.9c-0.3,2.7-2.6,4.7-5.4,4.7l-45.1,0c-2.5,0-4.7-1.7-5.3-4.2l-7.4-31.9l-6.3,28.4c-0.7,3-3.6,4.9-6.6,4.2
						c-2.4-0.5-4.1-2.6-4.3-5l-6.1-84.1L84,252.6c-0.1,1.6-0.8,3-2,4.1C80.9,257.7,79.5,258.2,78.1,258.2z"/>
				</g>
			</g>
		</g>
	</g>
</g>
</svg>
