<?xml version="1.0" encoding="utf-8"?>
<!-- Generator: Adobe Illustrator 17.1.0, SVG Export Plug-In . SVG Version: 6.00 Build 0)  -->
<!DOCTYPE svg PUBLIC "-//W3C//DTD SVG 1.1//EN" "http://www.w3.org/Graphics/SVG/1.1/DTD/svg11.dtd">
<svg version="1.1" id="Warstwa_2" xmlns="http://www.w3.org/2000/svg" xmlns:xlink="http://www.w3.org/1999/xlink" x="0px" y="0px"
	 viewBox="0 0 611.3 258.2" enable-background="new 0 0 611.3 258.2" xml:space="preserve">
<path fill="#C0272D" d="M78.1,258.2c-0.1,0-0.3,0-0.4,0c-2.9-0.2-5.3-2.5-5.6-5.4l-8.4-94.2l-3.5,9.5c-0.9,2.4-3.2,4-5.7,4l-51,0.1
	c0,0,0,0,0,0c-1.9,0-3.5-1.6-3.5-3.5c0-1.9,1.6-3.5,3.5-3.5l50.4,0l8.7-23.6c0.6-1.5,2.1-2.5,3.7-2.3c1.6,0.2,2.9,1.5,3,3.2
	l8.6,96.4L91.5,28.4c0.1-1.8,1.6-3.3,3.5-3.3c0,0,0,0,0,0c1.8,0,3.4,1.4,3.5,3.2l9.1,125l7.5-33.7c0.4-1.6,1.8-2.7,3.4-2.7
	c0,0,0,0,0,0c1.6,0,3,1.1,3.4,2.7l10.7,45.6l42.4,0l10.8-89.6c0.2-1.8,1.7-3.1,3.5-3.1c0,0,0,0,0,0c1.8,0,3.3,1.3,3.5,3.1
	l11.7,105.8l8.4-44.3c0.3-1.6,1.7-2.8,3.3-2.8c1.7-0.1,3.1,1,3.5,2.5l8.1,27.6l47.5,0c-4.9-4.4-9.9-8.9-14.7-13.5
	c-5.6-5.3-12-11.8-17.6-19c-6.2-8-10.2-15.6-12.1-23.3c-0.4-1.9-0.9-4.2-1.1-6.6c-0.2-2.1-0.3-4.3-0.2-6.7c0.2-4.6,0.9-9,2.2-13.1
	c1.2-4.2,3.1-8.3,5.4-12.1c2.3-3.7,5.1-7.2,8.4-10.3c3.4-3.2,7-5.8,10.8-7.8c3.8-2.1,8-3.7,12.4-4.7c0.7-0.2,1.4-0.3,2.1-0.5
	c0.3-0.1,0.7-0.1,1-0.2c0.1,0,0.2,0,0.3,0c0.3,0,0.7-0.1,1-0.2c0.7-0.1,1.4-0.2,2.2-0.3c1-0.1,2.1-0.2,3.2-0.3
	c1.1-0.1,2-0.1,2.9-0.1l0.4,0c0.1,0,0.1,0,0.2,0c2.5,0.1,4.6,0.5,6.7,1c2,0.5,4.2,1.3,6.4,2.2c8.1,3.6,14.9,9.3,19.6,13.8
	c2.7-2.8,5.3-5.3,8-7.5c4-3.3,7.6-5.7,11.2-7.4c4.3-2.2,8.8-3.4,13.1-3.8c4.3-0.3,8.8,0,13.5,0.9c9,1.8,17.3,5.8,24,11.8
	c6.8,5.9,11.9,13.6,14.8,22.3c1.4,4.1,2.3,8.6,2.6,13.2c0.3,4.8,0,9.3-1,13.6c-1.7,7.6-5.5,15.4-11.6,23.9
	c-5.5,7.6-11.7,14.3-17,19.9c-4.7,4.9-9.6,9.7-14.4,14.4l-0.1,0.1l36.6,0l5.3-14.8c0.5-1.5,2-2.5,3.6-2.3c1.6,0.2,2.9,1.4,3.1,3
	l8.4,54.3l5.3-82.8c0.1-1.7,1.5-3.1,3.2-3.3c1.7-0.2,3.3,1,3.7,2.7l10.7,44.3l32.3-0.1l11.1-30.1c0.6-1.5,2.1-2.5,3.7-2.3
	c1.6,0.2,2.9,1.5,3,3.2l7.2,80.7L508.9,3.3c0.1-1.8,1.6-3.3,3.5-3.3c0,0,0,0,0,0c1.8,0,3.4,1.4,3.5,3.2L526,142.5l6.5-29.4
	c0.4-1.6,1.8-2.7,3.4-2.7c0,0,0,0,0,0c1.6,0,3,1.1,3.4,2.7l12.2,51.8h56.2c1.9,0,3.5,1.6,3.5,3.5s-1.6,3.5-3.5,3.5h-58.9
	c-1.6,0-3-1.1-3.4-2.7l-9.3-39.6L528,166c-0.2,1-0.8,1.8-1.7,2.3c-0.8,0.5-1.8,0.7-2.8,0.5c-1.6-0.4-2.8-1.8-2.9-3.4l-8.1-110.8
	l-12.9,199.7c-0.1,2.3-2.1,4-4.4,3.8c-2.1-0.1-3.7-1.7-3.8-3.7L482.4,152l-6.3,17.2c-0.6,1.7-2.2,2.8-4,2.8l-36.3,0.1
	c-2,0-3.7-1.4-4.2-3.3l-5.8-23.9l-5.3,82.9c-0.2,2.5-2.3,4.3-4.7,4.2c-2.1-0.1-3.8-1.7-4.1-3.8l-9.8-63.5l-1.2,3.4
	c-0.6,1.8-2.4,3-4.3,3l-44.5,0c-2.5,0-4.6-2.1-4.6-4.6c0-1.8,1-3.4,2.6-4.2l3.4-3.3c4.7-4.7,9.6-9.5,14.3-14.3
	c5.2-5.4,11.2-11.9,16.4-19.1c5.5-7.7,8.9-14.7,10.4-21.4c0.9-3.6,1.1-7.4,0.8-11.5c-0.3-4-1.1-7.9-2.3-11.4
	c-2.5-7.5-6.9-14.1-12.8-19.2c-5.8-5.1-13-8.6-20.7-10.2c-4-0.8-7.9-1-11.6-0.8c-3.4,0.3-7,1.3-10.5,3.1c-3.1,1.5-6.2,3.6-9.8,6.5
	c-2.9,2.4-5.8,5.2-8.8,8.5c-1.8,2-4.8,2.1-6.8,0.3c0,0-0.1-0.1-0.1-0.1c-7-6.9-13.1-11.3-19.2-14c-1.8-0.8-3.6-1.4-5.2-1.8
	c-1.7-0.4-3.3-0.7-5.4-0.8l-0.3,0c-0.9,0-1.6,0-2.4,0c0,0-0.1,0-0.1,0c-0.9,0-1.9,0.1-2.8,0.2c0,0-0.1,0-0.1,0
	c-0.5,0-1.1,0.1-1.7,0.2c-0.4,0.1-0.7,0.1-1.1,0.2c-0.3,0.1-0.7,0.1-1,0.2c-0.6,0.1-1.2,0.2-1.7,0.4c-3.9,1-7.5,2.3-10.8,4.1
	c-3.3,1.8-6.4,4-9.4,6.7c-2.8,2.7-5.3,5.7-7.2,8.9c-2.1,3.3-3.6,6.9-4.7,10.5c-1.1,3.6-1.7,7.4-1.9,11.4c-0.1,2,0,3.9,0.1,5.7
	c0.1,1.6,0.4,3.3,1,5.6c1.7,6.6,5.3,13.4,10.9,20.7c5.3,6.9,11.5,13.1,16.9,18.2c5.1,4.9,10.5,9.7,15.7,14.4l1.8,1.6
	c1.8,0.8,3,2.6,3,4.6v0.4c0,1.3-0.5,2.6-1.5,3.5c-1.4,1.4-3.5,1.8-5.4,1.1l-52.7,0c-2.2,0-4.2-1.5-4.9-3.6l-4.4-15.1l-8,42.1
	c-0.5,2.8-3.2,4.6-6,4.1c-2.2-0.4-3.9-2.2-4.2-4.5l-9.7-87.8l-7.3,60.9c-0.3,2.7-2.6,4.7-5.4,4.7l-45.1,0c-2.5,0-4.7-1.7-5.3-4.2
	l-7.4-31.9l-6.3,28.4c-0.7,3-3.6,4.9-6.6,4.2c-2.4-0.5-4.1-2.6-4.3-5l-6.1-84.1L84,252.6c-0.1,1.6-0.8,3-2,4.1
	C80.9,257.7,79.5,258.2,78.1,258.2z"/>
</svg>
