<?xml version="1.0" encoding="utf-8"?>
<!-- Generator: Adobe Illustrator 17.1.0, SVG Export Plug-In . SVG Version: 6.00 Build 0)  -->
<!DOCTYPE svg PUBLIC "-//W3C//DTD SVG 1.1//EN" "http://www.w3.org/Graphics/SVG/1.1/DTD/svg11.dtd">
<svg version="1.1" id="Warstwa_4" xmlns="http://www.w3.org/2000/svg" xmlns:xlink="http://www.w3.org/1999/xlink" x="0px" y="0px"
	 viewBox="0 0 167.6 248.6" enable-background="new 0 0 167.6 248.6" xml:space="preserve">
<g id="Warstwa_3">
	<path fill-rule="evenodd" clip-rule="evenodd" d="M0,147.1c18.2,39.4,45.7,79.3,83.9,101.5c38-22.2,65.5-61.9,83.7-101.2
		c-9.4-8.3-23.8-11.4-43.1-20.3v18.5c0,0.2,0,0.5-0.2,0.7c4.1,1.4,6.9,5,6.9,9.4c0,5.7-4.4,10.3-10.1,10.3
		c-5.5,0-10.1-4.6-10.1-10.3c0-4.8,3.5-8.9,8-9.8c0,0,0,0,0-0.2v-21.1c-3-1.6-6.2-3.2-9.4-5v-12.6l0,0c7.8-5,10.5-16,13.1-25.9
		c1.1-0.2,2.1-2.1,2.1-4.4V76c0.9-1.1,1.8-3,2.5-6c0.9-3,4.4-12.1,1.1-14.4c-1.4-0.7-2.5-0.4-3.2,1.2c0,0,4.1-22.7,0.9-32.3
		C119-0.4,60.4-7.3,60.4,8.3C35.5,15.4,40.1,39,43.5,57.1c0,0-1.6-2.3-3.9,0c-2.7,3,0.2,9.8,1.1,13c0.7,2.8,1.6,4.4,2.3,5.7
		c0,0.2,0,0.5,0,0.9c0,2.3,0.9,4.4,2.3,4.4l0,0c3,11,4.8,21.8,13.1,27.5v11c-2.1,1.4-4.4,2.5-6.6,3.7v11.2c13.3,1.1,24,12.1,24,25.9
		v24c0,1.6-1.1,2.8-2.8,2.8h-8.5c-1.6,0-2.8-1.2-2.8-2.8c0-1.6,1.1-2.8,2.8-2.8h5.7v-21.3c0-11.4-9.2-20.6-20.6-20.6
		c-11.4,0-20.8,9.1-20.8,20.6v21.3h6.4c1.4,0,2.8,1.1,2.8,2.8c0,1.6-1.4,2.8-2.8,2.8h-9.2c-1.4,0-2.7-1.2-2.7-2.8v-24
		c0-13.3,10.1-24,22.9-25.6v-8.7C25.3,135.9,9.8,138.2,0,147.1L0,147.1z M121.1,160.5c-2.7,0-4.8-2-4.8-4.8c0-2.5,2.1-4.6,4.8-4.6
		c2.5,0,4.8,2.1,4.8,4.6C125.9,158.5,123.6,160.5,121.1,160.5L121.1,160.5z"/>
</g>
</svg>
