<?xml version="1.0" encoding="iso-8859-1"?>
<!-- Generator: Adobe Illustrator 16.0.0, SVG Export Plug-In . SVG Version: 6.00 Build 0)  -->
<!DOCTYPE svg PUBLIC "-//W3C//DTD SVG 1.1//EN" "http://www.w3.org/Graphics/SVG/1.1/DTD/svg11.dtd">
<svg xmlns="http://www.w3.org/2000/svg" xmlns:xlink="http://www.w3.org/1999/xlink" version="1.1" id="Capa_1" x="0px" y="0px" width="512px" height="512px" viewBox="0 0 46.074 46.074" style="enable-background:new 0 0 46.074 46.074;" xml:space="preserve">
<g>
	<g>
		<path d="M15.431,19.048c-1.071-1.12-2.847-1.16-3.968-0.089L3.354,26.71c-4.332,4.141-4.488,11.032-0.348,15.362    c4.483,4.691,11.946,4.86,16.636,0.377l7.463-7.135c0.538-0.515,0.851-1.222,0.867-1.966c0.018-0.745-0.263-1.465-0.778-2.003    L15.431,19.048z" fill="#FFFFFF"/>
		<path d="M39.899,1.592C34.412-1.23,27.612,1.012,24.791,6.5l-4.879,9.482c-0.34,0.662-0.404,1.433-0.177,2.142    s0.728,1.299,1.39,1.639l15.137,7.778c1.378,0.708,3.07,0.166,3.779-1.212l4.759-9.251C47.686,11.465,45.51,4.477,39.899,1.592z     M41.102,14.843l-3.892,7.563l-12.461-6.404l3.989-7.755c1.736-3.374,5.854-4.632,9.229-2.896    C41.462,7.15,42.9,11.346,41.102,14.843z" fill="#FFFFFF"/>
		<circle cx="35.94" cy="35.777" r="2.784" fill="#FFFFFF"/>
		<circle cx="31.784" cy="42.34" r="2.45" fill="#FFFFFF"/>
		<circle cx="42.159" cy="42.464" r="2.326" fill="#FFFFFF"/>
		<circle cx="11.689" cy="10.681" r="2.855" fill="#FFFFFF"/>
		<circle cx="17.667" cy="5.826" r="2" fill="#FFFFFF"/>
		<circle cx="9.347" cy="3.34" r="2.18" fill="#FFFFFF"/>
	</g>
</g>
<g>
</g>
<g>
</g>
<g>
</g>
<g>
</g>
<g>
</g>
<g>
</g>
<g>
</g>
<g>
</g>
<g>
</g>
<g>
</g>
<g>
</g>
<g>
</g>
<g>
</g>
<g>
</g>
<g>
</g>
</svg>
